<?xml version="1.0" encoding="UTF-8"?>
<svg version="1.1" xmlns="http://www.w3.org/2000/svg" width="128" height="128" viewBox="0 0 1024 1024">
<path d="M0 0 C0.33 0 0.66 0 1 0 C1.41028503 6.07901148 1.81914903 12.15811645 2.22680664 18.23730469 C2.36510658 20.29690001 2.50376664 22.35647119 2.64282227 24.41601562 C2.77786084 26.41673151 2.91235356 28.41748431 3.04629517 30.41827393 C3.17942441 32.40400829 3.31400547 34.38964585 3.45004272 36.37518311 C3.76280447 41.02180499 4.040624 45.66337013 4.21533203 50.31738281 C4.26609642 51.55024521 4.26609642 51.55024521 4.31788635 52.80801392 C4.37732744 54.32580134 4.42566943 55.84408455 4.46031189 57.36264038 C4.70246617 63.32775648 6.35664722 66.43490211 10.625 70.5 C13 73 13 73 13.375 75.5625 C13.74002737 78.06723455 13.74002737 78.06723455 15.5703125 79.1328125 C17.36630145 80.11442589 19.18250707 81.05879831 21 82 C22.60319632 85.20639264 22.18452588 88.66911302 22.1875 92.1875 C22.19974609 92.93064453 22.21199219 93.67378906 22.22460938 94.43945312 C22.23731262 99.27091899 21.74278807 103.42590507 20 108 C17 110.1875 17 110.1875 14 112 C12.61131484 114.10039331 12.61131484 114.10039331 12 116 C13.65 116.33 15.3 116.66 17 117 C17.02465504 121.39656173 17.04283842 125.7930872 17.05493164 130.18969727 C17.05997121 131.68644918 17.06680287 133.18319616 17.07543945 134.67993164 C17.08752159 136.82699807 17.09323191 138.97399962 17.09765625 141.12109375 C17.10551147 143.06133423 17.10551147 143.06133423 17.11352539 145.04077148 C17 148 17 148 16 149 C14.02 149 12.04 149 10 149 C10 224.24 10 299.48 10 377 C13.96 377 17.92 377 22 377 C22 356.54 22 336.08 22 315 C25.69213922 314.0769652 28.48149954 313.89653804 32.25 313.9375 C33.32765625 313.94652344 34.4053125 313.95554687 35.515625 313.96484375 C36.33546875 313.97644531 37.1553125 313.98804688 38 314 C38 313.34 38 312.68 38 312 C41.50095311 310.83301563 44.3122232 310.86731713 48 310.875 C49.85625 310.87113281 49.85625 310.87113281 51.75 310.8671875 C55 311 55 311 58 312 C58 327.84 58 343.68 58 360 C61.3 360 64.6 360 68 360 C68.33 331.62 68.66 303.24 69 274 C71.65907584 272.67046208 73.66565368 272.88013969 76.64306641 272.88647461 C77.82413971 272.88655014 79.00521301 272.88662567 80.22207642 272.88670349 C81.50230682 272.89186478 82.78253723 272.89702606 84.1015625 272.90234375 C85.40829926 272.9037587 86.71503601 272.90517365 88.06137085 272.90663147 C91.53676258 272.91045106 95.01211257 272.92027658 98.48748779 272.93133545 C102.03331935 272.94156157 105.57915784 272.94618642 109.125 272.95117188 C116.08337021 272.96136878 123.04162577 272.98094176 130 273 C130 289.17 130 305.34 130 322 C141.88 322 153.76 322 166 322 C166 338.5 166 355 166 372 C168.97 372 171.94 372 175 372 C174.99446924 370.50994273 174.99446924 370.50994273 174.98882675 368.98978329 C174.90003131 344.81966073 174.8342983 320.64955934 174.79275131 296.47930813 C174.7721255 284.79075257 174.74400439 273.10230476 174.69824219 261.41381836 C174.65837518 251.22621576 174.63256733 241.0386912 174.62364602 230.85101277 C174.61843108 225.45661673 174.60617342 220.06244393 174.57707977 214.66811943 C174.54991299 209.58987447 174.54155764 204.51194454 174.54756927 199.4336338 C174.54646961 197.57082787 174.53852331 195.70801131 174.5231781 193.84526825 C174.50323022 191.2987175 174.50807796 188.7533509 174.51898193 186.20677185 C174.50150488 185.10509073 174.50150488 185.10509073 174.48367476 183.98115343 C174.54733504 178.46803862 176.11906164 175.51475221 179 171 C179.59804169 168.63250788 179.59804169 168.63250788 179.57421875 166.4140625 C179.61579102 165.23650391 179.61579102 165.23650391 179.65820312 164.03515625 C179.67270508 162.84212891 179.67270508 162.84212891 179.6875 161.625 C179.90925627 153.09074373 179.90925627 153.09074373 181 152 C182.38160115 151.9072167 183.76788038 151.88252957 185.15258789 151.88647461 C186.03342545 151.88655014 186.914263 151.88662567 187.8217926 151.88670349 C188.77907761 151.89186478 189.73636261 151.89702606 190.72265625 151.90234375 C192.18547279 151.90446617 192.18547279 151.90446617 193.67784119 151.90663147 C196.80609143 151.91224867 199.93427123 151.92480407 203.0625 151.9375 C205.17773334 151.94251278 207.29296781 151.94707607 209.40820312 151.95117188 C214.60549296 151.96222369 219.80274145 151.97897854 225 152 C226.29066971 154.58133942 226.15576261 156.92437783 226.24023438 159.76538086 C226.47660667 167.27898546 227.05517506 173.408855 231 180 C232.44583483 182.89166966 232.12266289 185.38639502 232.12025452 188.61843872 C232.12110894 189.30618437 232.12196337 189.99393001 232.12284368 190.70251644 C232.12449705 193.01801232 232.11897945 195.33343652 232.11352539 197.64892578 C232.11324346 199.30437213 232.11340136 200.95981861 232.1139679 202.61526489 C232.11425565 207.11914593 232.10836248 211.62300052 232.10139394 216.1268754 C232.09515673 220.83009616 232.09455631 225.53331749 232.09336853 230.23654175 C232.0902563 239.14713839 232.08204436 248.0577228 232.07201904 256.96831405 C232.06085455 267.1108502 232.0553466 277.25338691 232.05032361 287.39592767 C232.03986167 308.26395861 232.02226431 329.13197854 232 350 C232.94101562 349.98839844 233.88203125 349.97679687 234.8515625 349.96484375 C236.71941406 349.95130859 236.71941406 349.95130859 238.625 349.9375 C239.85476563 349.92589844 241.08453125 349.91429687 242.3515625 349.90234375 C246 350 246 350 252 351 C252 359.91 252 368.82 252 378 C254.31 378 256.62 378 259 378 C259 335.76 259 293.52 259 250 C265.93 250 272.86 250 280 250 C280 246.37 280 242.74 280 239 C282.95857409 238.94620774 285.91617721 238.90642907 288.875 238.875 C289.71675781 238.85824219 290.55851563 238.84148437 291.42578125 238.82421875 C292.23144531 238.81777344 293.03710938 238.81132812 293.8671875 238.8046875 C294.61081543 238.79421387 295.35444336 238.78374023 296.12060547 238.77294922 C298 239 298 239 300 241 C300.27240673 244.01826653 300.08675125 246.96370622 300 250 C303.63 250 307.26 250 311 250 C311 291.25 311 332.5 311 375 C314.96 375 318.92 375 323 375 C323 378.3 323 381.6 323 385 C325.31 385 327.62 385 330 385 C329.99777939 384.30064835 329.99555878 383.60129669 329.99327087 382.88075256 C329.9732672 376.30295079 329.95802548 369.72515746 329.94818783 363.14733219 C329.94296025 359.76528187 329.93586489 356.3832566 329.92456055 353.0012207 C329.91165733 349.11670223 329.90677076 345.23219403 329.90234375 341.34765625 C329.89718246 340.12788589 329.89202118 338.90811554 329.88670349 337.65138245 C329.88662796 336.53029587 329.88655243 335.40920929 329.88647461 334.25415039 C329.884254 333.26153702 329.88203339 332.26892365 329.87974548 331.24623108 C330 329 330 329 331 328 C332.68608966 327.92794489 334.37500659 327.91613932 336.0625 327.9375 C336.98160156 327.94652344 337.90070312 327.95554687 338.84765625 327.96484375 C339.91306641 327.98224609 339.91306641 327.98224609 341 328 C341 326.68 341 325.36 341 324 C341.61359375 323.77570313 342.2271875 323.55140625 342.859375 323.3203125 C345.68926087 321.57487194 346.13933057 319.9690077 347.25 316.875 C347.58515625 315.96492188 347.9203125 315.05484375 348.265625 314.1171875 C348.50796875 313.41851562 348.7503125 312.71984375 349 312 C353 318 353 318 353 323 C354.65 323.33 356.3 323.66 358 324 C358 325.32 358 326.64 358 328 C359.4540625 327.9690625 359.4540625 327.9690625 360.9375 327.9375 C364 328 364 328 365 329 C365.09529612 332.01350238 365.12551904 335.00404106 365.11352539 338.01782227 C365.11367142 338.96406464 365.11381744 339.91030701 365.1139679 340.88522339 C365.11326836 344.02897392 365.10547409 347.17266601 365.09765625 350.31640625 C365.09579221 352.48974068 365.09436824 354.66307552 365.09336853 356.83641052 C365.08954221 362.56901195 365.07971097 368.30158823 365.06866455 374.03417969 C365.05845287 379.87890279 365.05387143 385.72362993 365.04882812 391.56835938 C365.0380888 403.04558577 365.02049108 414.52278686 365 426 C372.59 426 380.18 426 388 426 C388 428.97 388 431.94 388 435 C141.16 435 -105.68 435 -360 435 C-359.67 432.03 -359.34 429.06 -359 426 C-350.09 426 -341.18 426 -332 426 C-332.33 425.34 -332.66 424.68 -333 424 C-333.09669929 421.95308212 -333.12796596 419.90295998 -333.12939453 417.85375977 C-333.13254669 416.56224503 -333.13569885 415.27073029 -333.13894653 413.94007874 C-333.13715651 412.52385423 -333.1351055 411.10763003 -333.1328125 409.69140625 C-333.13348591 408.24413537 -333.13445625 406.79686461 -333.13571167 405.34959412 C-333.13718735 402.31402511 -333.13503856 399.27848551 -333.13037109 396.24291992 C-333.12467896 392.35112697 -333.12795035 388.45940306 -333.13394356 384.56761265 C-333.13755701 381.57793152 -333.13640688 378.58826675 -333.13381577 375.59858513 C-333.1331484 374.16365488 -333.13396827 372.72872315 -333.13629532 371.29379463 C-333.13883406 369.28774163 -333.13427871 367.28168343 -333.12939453 365.27563477 C-333.12859894 364.13361099 -333.12780334 362.99158722 -333.12698364 361.81495667 C-333 359 -333 359 -332 356 C-328.67744449 354.33872225 -324.96065571 354.85838276 -321.30859375 354.8671875 C-320.44814957 354.86623077 -319.58770538 354.86527405 -318.70118713 354.86428833 C-316.88127571 354.86360735 -315.06136185 354.86545591 -313.24145508 354.86962891 C-310.44542021 354.87498483 -307.64954552 354.8696778 -304.85351562 354.86328125 C-303.08854131 354.86394192 -301.3235671 354.86522285 -299.55859375 354.8671875 C-298.71695175 354.86516327 -297.87530975 354.86313904 -297.00816345 354.86105347 C-291.11495472 354.88504528 -291.11495472 354.88504528 -290 356 C-289.91232888 358.07262076 -289.89304127 360.14820294 -289.90234375 362.22265625 C-289.90717773 364.11274414 -289.90717773 364.11274414 -289.91210938 366.04101562 C-289.92046597 367.38151109 -289.92893093 368.72200588 -289.9375 370.0625 C-289.9425134 371.40689942 -289.94707658 372.7513006 -289.95117188 374.09570312 C-289.96300512 377.39717941 -289.97949029 380.69856803 -290 384 C-286.7 384 -283.4 384 -280 384 C-279.67 324.93 -279.34 265.86 -279 205 C-275 203 -275 203 -273 203 C-272.93941406 202.36191406 -272.87882812 201.72382813 -272.81640625 201.06640625 C-272.69072266 199.82697266 -272.69072266 199.82697266 -272.5625 198.5625 C-272.44068359 197.32693359 -272.44068359 197.32693359 -272.31640625 196.06640625 C-272 194 -272 194 -271 193 C-247.57 193 -224.14 193 -200 193 C-199.67 244.15 -199.34 295.3 -199 348 C-193.39 348.33 -187.78 348.66 -182 349 C-182 360.88 -182 372.76 -182 385 C-179.03 385 -176.06 385 -173 385 C-173.00222061 384.3257045 -173.00444122 383.651409 -173.00672913 382.9566803 C-173.02877929 375.96567309 -173.04390547 368.97467569 -173.05493164 361.98364258 C-173.05997377 359.37133381 -173.06680725 356.75902789 -173.07543945 354.14672852 C-173.08751036 350.40119732 -173.09322935 346.65570328 -173.09765625 342.91015625 C-173.10281754 341.73413345 -173.10797882 340.55811066 -173.11329651 339.34645081 C-173.11337204 338.26540573 -173.11344757 337.18436066 -173.11352539 336.07055664 C-173.115746 335.11347305 -173.11796661 334.15638947 -173.12025452 333.17030334 C-173 331 -173 331 -172 330 C-169.36 330 -166.72 330 -164 330 C-164 320.76 -164 311.52 -164 302 C-154.49232562 301.16784561 -145.27652645 300.93303496 -135.75415039 301.296875 C-133.64426084 301.37663456 -131.53422198 301.44289966 -129.42382812 301.5078125 C-119.13988642 301.86011358 -119.13988642 301.86011358 -118 303 C-117.8774645 304.53382679 -117.82222062 306.07310519 -117.79467773 307.61157227 C-117.77473251 308.59251358 -117.75478729 309.5734549 -117.73423767 310.5841217 C-117.70916893 312.18410255 -117.70916893 312.18410255 -117.68359375 313.81640625 C-117.66281265 314.9025975 -117.64203156 315.98878876 -117.62062073 317.1078949 C-117.55500558 320.59269627 -117.49618489 324.07757568 -117.4375 327.5625 C-117.39432615 329.91862801 -117.35071224 332.27474799 -117.30664062 334.63085938 C-117.19848037 340.42049396 -117.09949592 346.21018398 -117 352 C-108.75 352.33 -100.5 352.66 -92 353 C-92 345.74 -92 338.48 -92 331 C-80.78 331 -69.56 331 -58 331 C-58 329.35 -58 327.7 -58 326 C-57 325 -57 325 -53.5 324.875 C-50 325 -50 325 -49 326 C-48.95936168 327.66617115 -48.957279 329.33388095 -49 331 C-47.35 331.33 -45.7 331.66 -44 332 C-44 342.56 -44 353.12 -44 364 C-36.41 364 -28.82 364 -21 364 C-20.67 365.65 -20.34 367.3 -20 369 C-16.7 369 -13.4 369 -10 369 C-10 296.4 -10 223.8 -10 149 C-11.65 149 -13.3 149 -15 149 C-15.09889302 144.49770526 -15.17147709 139.99604273 -15.21972656 135.49291992 C-15.2398398 133.96123238 -15.2671345 132.42962161 -15.30175781 130.89819336 C-15.35029315 128.69625927 -15.37296996 126.49534018 -15.390625 124.29296875 C-15.41127014 123.60849167 -15.43191528 122.92401459 -15.45318604 122.21879578 C-15.45410156 120.27807617 -15.45410156 120.27807617 -15 117 C-12.97558594 115.04418945 -12.97558594 115.04418945 -11 114 C-11.63808594 113.59910156 -12.27617187 113.19820313 -12.93359375 112.78515625 C-19.48897128 108.27513832 -19.48897128 108.27513832 -20.8203125 104.953125 C-21.08661858 102.5993229 -21.07661777 100.36785403 -21 98 C-21.04511719 96.98808594 -21.09023438 95.97617188 -21.13671875 94.93359375 C-21.46889476 85.59830236 -21.46889476 85.59830236 -18 81 C-16.453125 80.319375 -16.453125 80.319375 -14.875 79.625 C-13.92625 79.08875 -12.9775 78.5525 -12 78 C-11.65458149 75.66842508 -11.32205743 73.33491639 -11 71 C-9.18178733 69.02322228 -7.16338429 67.62253821 -5 66 C-4.0480476 63.1441428 -3.78899676 61.04103602 -3.62695312 58.06054688 C-3.57019409 57.05519897 -3.51343506 56.04985107 -3.45495605 55.01403809 C-3.39763306 53.92659302 -3.34031006 52.83914795 -3.28125 51.71875 C-3.21844849 50.59488892 -3.15564697 49.47102783 -3.09094238 48.31311035 C-2.89006584 44.70894326 -2.69469524 41.10450587 -2.5 37.5 C-2.30455643 33.92410656 -2.10789334 30.34828947 -1.90905762 26.77258301 C-1.78557098 24.54768495 -1.66411185 22.32267308 -1.54504395 20.09753418 C-1.17517263 13.38183655 -0.65665829 6.6937716 0 0 Z " fill="#5D737E" transform="translate(494,160)"/>
<path d="M0 0 C6.42709101 4.0661188 10.94399357 7.89532463 14.0625 14.9375 C16.24521417 24.79958745 16.38164196 34.93297239 16.32324219 44.99121094 C16.31243816 47.20014434 16.32325943 49.4082771 16.3359375 51.6171875 C16.34919962 63.87266897 16.26671355 75.37980868 7.390625 84.69140625 C0.5860761 90.93894562 -6.20863787 91.38671043 -15.23046875 91.25390625 C-22.83982075 90.6044252 -27.98509685 87.76385664 -32.9375 81.9375 C-33.7728125 80.9784375 -33.7728125 80.9784375 -34.625 80 C-38.23977025 74.31964675 -38.29510401 68.4420637 -38.421875 61.9296875 C-38.4459845 60.96781525 -38.47009399 60.00594299 -38.49493408 59.0149231 C-38.54310999 56.98271006 -38.58652731 54.95037933 -38.62548828 52.91796875 C-38.68688742 49.84317721 -38.77015623 46.76952215 -38.85546875 43.6953125 C-39.52701667 15.62015726 -39.52701667 15.62015726 -32.9375 6.9375 C-24.47602273 -1.16237568 -11.22090253 -4.20783845 0 0 Z M-19.9375 17.9375 C-22.4756183 22.59440494 -22.22711921 27.20538884 -22.203125 32.3671875 C-22.20503845 33.27574493 -22.2069519 34.18430237 -22.20892334 35.12039185 C-22.21028151 37.03843463 -22.20661081 38.95648671 -22.19824219 40.87451172 C-22.1875623 43.79546001 -22.1981372 46.71578982 -22.2109375 49.63671875 C-22.20961536 51.50520968 -22.20705183 53.37370023 -22.203125 55.2421875 C-22.20717346 56.10907196 -22.21122192 56.97595642 -22.21539307 57.86911011 C-22.16928942 63.89653573 -21.7451251 69.22606236 -18.3125 74.375 C-14.91416275 76.61074819 -11.82245947 76.67123986 -7.9375 75.9375 C-4.90821892 74.66425163 -4.90821892 74.66425163 -2.9375 71.9375 C-0.63391902 64.19200996 -0.67122662 56.7223846 -0.75 48.6875 C-0.7509668 46.83705078 -0.7509668 46.83705078 -0.75195312 44.94921875 C0.14517244 28.89191367 0.14517244 28.89191367 -5.9375 14.9375 C-11.3715378 12.2204811 -15.96300944 13.73589569 -19.9375 17.9375 Z " fill="#1E1A1D" transform="translate(225.9375,640.0625)"/>
<path d="M0 0 C5.33168607 3.85604771 9.74652409 8.80360605 10.93359375 15.3984375 C11.06993354 18.75138641 11.02438757 22.03906615 10.93359375 25.3984375 C5.65359375 25.3984375 0.37359375 25.3984375 -5.06640625 25.3984375 C-5.31390625 23.9753125 -5.56140625 22.5521875 -5.81640625 21.0859375 C-6.47597845 18.19291735 -6.85750656 16.65375935 -8.75390625 14.3359375 C-12.03199856 13.00698116 -14.56796849 13.01678974 -18.06640625 13.3984375 C-20.16999006 14.94106563 -20.90694784 16.07952067 -22.06640625 18.3984375 C-22.45133158 23.49869808 -22.05044216 26.25504106 -19.06640625 30.3984375 C-16.955816 32.08651975 -16.955816 32.08651975 -14.50390625 33.3984375 C-13.17359375 34.16027344 -13.17359375 34.16027344 -11.81640625 34.9375 C-9.244567 36.3037896 -6.64331468 37.54446295 -4.00390625 38.7734375 C2.44706966 41.95822529 8.98255807 46.37502319 11.99609375 53.1484375 C14.61820212 62.30785716 13.35768096 71.08605219 8.93359375 79.3984375 C5.8321313 84.31799862 1.67561457 87.16462586 -3.8671875 88.9921875 C-13.23278924 90.72224537 -23.24424501 90.27304481 -31.28515625 84.921875 C-36.04743219 81.14311257 -39.0020016 77.45156699 -40.06640625 71.3984375 C-40.27426537 68.01951832 -40.20774209 64.79049776 -40.06640625 61.3984375 C-34.78640625 61.3984375 -29.50640625 61.3984375 -24.06640625 61.3984375 C-23.64322917 63.64453125 -23.22005208 65.890625 -22.796875 68.13671875 C-21.96233095 70.72068133 -21.25496271 71.80355842 -19.06640625 73.3984375 C-15.99685864 74.08822348 -13.15371022 73.96074856 -10.06640625 73.3984375 C-6.83628855 71.5850878 -6.83628855 71.5850878 -5.06640625 68.3984375 C-4.26103455 64.07170655 -4.59052763 60.09504891 -7.06640625 56.3984375 C-9.43629852 54.77358333 -9.43629852 54.77358333 -12.30078125 53.41015625 C-13.35007812 52.86810547 -14.399375 52.32605469 -15.48046875 51.76757812 C-17.68725981 50.65513837 -19.89557332 49.54571313 -22.10546875 48.43945312 C-29.40838108 44.65854436 -34.58556874 41.21418089 -38.39453125 33.8203125 C-40.92155764 24.71126388 -40.82505511 15.52164253 -36.31640625 7.1484375 C-27.61517172 -3.48640471 -12.42240521 -6.62215174 0 0 Z " fill="#1E1A1D" transform="translate(612.06640625,641.6015625)"/>
<path d="M0 0 C5.61 0.33 11.22 0.66 17 1 C17.0093457 3.05879395 17.01869141 5.11758789 17.02832031 7.23876953 C17.06213544 14.05221917 17.11770941 20.86536737 17.18390274 27.67857552 C17.2233589 31.80819377 17.25555631 35.93759939 17.27099609 40.06738281 C17.28617525 44.05526299 17.32064226 48.04255854 17.36830902 52.03017807 C17.38311 53.54910059 17.39104028 55.06810659 17.39188385 56.58710098 C17.39425932 58.72031734 17.4213808 60.85192553 17.45410156 62.98486328 C17.46298401 64.1973172 17.47186646 65.40977112 17.48101807 66.65896606 C18.10220927 70.65798945 19.48670159 72.86371436 22 76 C24.77102734 77.05537174 27.15716886 76.7705415 30 76 C34.13413107 72.50188909 34.42871617 69.20095452 35 64 C35.08149991 61.80856149 35.11793776 59.61506818 35.11352539 57.42211914 C35.11344986 56.16134048 35.11337433 54.90056183 35.11329651 53.60157776 C35.1081915 52.24610351 35.10297553 50.89062967 35.09765625 49.53515625 C35.09578854 48.13268586 35.0943663 46.73021481 35.09336853 45.32774353 C35.08957116 41.6567908 35.07976496 37.98587835 35.06866455 34.31494141 C35.05839031 30.56087794 35.05385809 26.80680789 35.04882812 23.05273438 C35.0381399 15.70180253 35.02056597 8.35091207 35 1 C40.61 1 46.22 1 52 1 C52.06797334 10.10180511 52.12292955 19.20343961 52.15543652 28.30544186 C52.17104394 32.53258182 52.19219136 36.75953803 52.22631836 40.98657227 C52.25908863 45.07146048 52.27688998 49.15617273 52.28463173 53.24118233 C52.29014371 54.79398935 52.30090677 56.34678754 52.31719017 57.89951897 C52.50574834 76.63740974 52.50574834 76.63740974 46.75 84.3125 C39.43152091 91.46465002 32.40233252 92.30110972 22.48828125 92.21875 C15.97113527 91.81005999 10.62736619 89.75243014 6 85 C1.33093248 77.95010485 -0.12855767 72.37796588 -0.11352539 63.91479492 C-0.11367142 63.22156128 -0.11381744 62.52832764 -0.1139679 61.81408691 C-0.11327451 59.53618171 -0.10550915 57.25835957 -0.09765625 54.98046875 C-0.09579003 53.39577784 -0.09436709 51.81108635 -0.09336853 50.22639465 C-0.08955943 46.0655049 -0.07974292 41.90465032 -0.06866455 37.74377441 C-0.05841582 33.49390132 -0.0538635 29.24402252 -0.04882812 24.99414062 C-0.03811916 16.66274251 -0.02053542 8.33137969 0 0 Z " fill="#1E1A1D" transform="translate(701,639)"/>
<path d="M0 0 C2.83228446 1.55159931 4.74900234 3.51488149 6.796875 5.984375 C7.35375 6.5825 7.910625 7.180625 8.484375 7.796875 C12.08551263 13.79877105 12.00851307 20.2119568 11.796875 26.984375 C6.516875 26.984375 1.236875 26.984375 -4.203125 26.984375 C-4.43 25.581875 -4.656875 24.179375 -4.890625 22.734375 C-5.64922651 19.36575989 -6.11166029 18.08854314 -8.453125 15.421875 C-11.79282953 13.67612036 -13.48955808 13.2880812 -17.203125 13.984375 C-20.18894573 16.04997828 -21.94853726 17.69056349 -22.665802 21.33569336 C-22.84970783 24.31310845 -22.86961757 27.2514513 -22.83203125 30.234375 C-22.83444321 31.32524414 -22.83685516 32.41611328 -22.83934021 33.54003906 C-22.83836205 35.84313599 -22.82497614 38.14625652 -22.80004883 40.44921875 C-22.76574387 43.9721676 -22.77939248 47.49260752 -22.79882812 51.015625 C-22.79192952 53.255219 -22.78225701 55.49480653 -22.76953125 57.734375 C-22.77697105 59.3126709 -22.77697105 59.3126709 -22.78456116 60.92285156 C-22.71180539 65.44596999 -22.66615743 68.21058575 -20.30859375 72.15039062 C-17.87068556 74.27394888 -16.83359471 74.61403874 -13.640625 74.484375 C-12.87621094 74.4740625 -12.11179687 74.46375 -11.32421875 74.453125 C-8.72120011 73.87787226 -7.82356749 73.07272641 -6.203125 70.984375 C-5.01616947 67.42350842 -4.85217082 64.01106476 -4.640625 60.296875 C-4.59744141 59.59498047 -4.55425781 58.89308594 -4.50976562 58.16992188 C-4.4039514 56.44162294 -4.30305919 54.7130239 -4.203125 52.984375 C-7.173125 52.984375 -10.143125 52.984375 -13.203125 52.984375 C-13.203125 48.694375 -13.203125 44.404375 -13.203125 39.984375 C-4.623125 39.984375 3.956875 39.984375 12.796875 39.984375 C12.838125 43.738125 12.879375 47.491875 12.921875 51.359375 C12.94008301 52.52130371 12.95829102 53.68323242 12.97705078 54.88037109 C13.03006271 64.95776769 12.29879908 73.91550522 5.796875 81.984375 C-0.46684284 88.24809284 -6.4513196 90.13817999 -15.078125 90.484375 C-22.72528825 90.28787402 -28.58133974 88.59106949 -34.078125 83.1171875 C-40.27796028 75.4568141 -40.51198325 67.75189092 -40.50390625 58.2421875 C-40.50819138 57.11924286 -40.5124765 55.99629822 -40.51689148 54.83932495 C-40.52261819 52.47085238 -40.52314731 50.10236222 -40.51879883 47.73388672 C-40.51564155 44.12827252 -40.53911071 40.52348153 -40.56445312 36.91796875 C-40.56672668 34.60937603 -40.56742935 32.30078112 -40.56640625 29.9921875 C-40.575616 28.92316193 -40.58482574 27.85413635 -40.59431458 26.75271606 C-40.54490971 18.67979261 -39.63519552 10.4808536 -33.81640625 4.3359375 C-24.36635881 -3.58105139 -11.36165921 -4.52757848 0 0 Z " fill="#1E1A1D" transform="translate(871.203125,641.015625)"/>
<path d="M0 0 C5.61 0 11.22 0 17 0 C17.06792445 9.37984362 17.12290161 18.75952242 17.15543652 28.13955688 C17.17105593 32.4956378 17.19222569 36.85154092 17.22631836 41.20751953 C17.25904529 45.41559585 17.276881 49.62350174 17.28463173 53.83169556 C17.2901514 55.4327767 17.30092979 57.03384909 17.31719017 58.63485718 C17.42127169 69.31275835 17.37424324 78.28593421 9.64453125 86.5234375 C4.1127965 91.49017322 -1.69163029 91.4782157 -8.83984375 91.28125 C-14.51486266 90.77618033 -18.96690174 89.50749169 -22.875 85.125 C-27.7030707 78.02489603 -27.52647448 71.44453839 -28 63 C-22.39 63 -16.78 63 -11 63 C-10.505 68.94 -10.505 68.94 -10 75 C-7.36 75 -4.72 75 -2 75 C-0.52250997 72.04501993 -0.83434663 69.36996231 -0.79467773 66.07177734 C-0.77982834 65.00332329 -0.77982834 65.00332329 -0.76467896 63.9132843 C-0.73304142 61.55420274 -0.7082977 59.19510103 -0.68359375 56.8359375 C-0.66302616 55.20211253 -0.64202974 53.56829292 -0.62062073 51.93447876 C-0.56537987 47.63057784 -0.5159795 43.32662874 -0.46777344 39.02264404 C-0.4175731 34.63223982 -0.36187939 30.24190571 -0.30664062 25.8515625 C-0.1990344 17.23443263 -0.09810245 8.61724332 0 0 Z " fill="#1E1A1D" transform="translate(157,640)"/>
<path d="M0 0 C5.61 0 11.22 0 17 0 C17 12.21 17 24.42 17 37 C23.27 37 29.54 37 36 37 C36 24.79 36 12.58 36 0 C41.28 0 46.56 0 52 0 C52 29.7 52 59.4 52 90 C46.72 90 41.44 90 36 90 C36 77.46 36 64.92 36 52 C29.73 52 23.46 52 17 52 C17 64.54 17 77.08 17 90 C11.39 90 5.78 90 0 90 C0 60.3 0 30.6 0 0 Z " fill="#1E1A1D" transform="translate(254,640)"/>
<path d="M0 0 C6.27 0 12.54 0 19 0 C21.92942117 10.8385275 24.68211975 21.70643708 27.328125 32.6171875 C27.72586058 34.2524788 28.12371029 35.88774235 28.52166748 37.52297974 C29.34622144 40.91269003 30.16964708 44.30267165 30.9921875 47.69287109 C32.04834136 52.04567354 33.10704562 56.39785096 34.16652298 60.7498455 C34.98405409 64.10892753 35.80045167 67.46828421 36.61647797 70.82773209 C37.0069149 72.43464821 37.39766601 74.04148803 37.78873444 75.64825058 C38.33066471 77.87574205 38.87111305 80.10358768 39.41113281 82.33154297 C39.71883606 83.59868134 40.02653931 84.8658197 40.34356689 86.1713562 C41 89 41 89 41 90 C35.06 90 29.12 90 23 90 C20 78.5 20 78.5 20 74 C13.4 74 6.8 74 0 74 C-0.99 79.28 -1.98 84.56 -3 90 C-8.94 90 -14.88 90 -21 90 C-17.59131495 73.33233532 -13.76654853 56.76657588 -9.91723633 40.1965332 C-8.98615422 36.18816332 -8.05920914 32.17884886 -7.13330555 28.16928005 C-6.41535113 25.06259479 -5.69504648 21.95645814 -4.97403526 18.85048103 C-4.63076386 17.37025092 -4.2882801 15.88983792 -3.94660378 14.40923882 C-3.47309786 12.35875999 -2.99638089 10.30905417 -2.51879883 8.25952148 C-2.24884598 7.09549301 -1.97889313 5.93146454 -1.70075989 4.73216248 C-1 2 -1 2 0 0 Z M9 25 C8.13926926 29.17965658 7.28498026 33.36056357 6.43652344 37.54272461 C6.14725708 38.96398019 5.85626228 40.38488517 5.56347656 41.80541992 C5.14188262 43.85244491 4.72660984 45.90066833 4.3125 47.94921875 C4.06113281 49.17987061 3.80976563 50.41052246 3.55078125 51.6784668 C2.86367702 55.26095915 2.86367702 55.26095915 3 60 C7.62 60 12.24 60 17 60 C16.20996974 55.85384885 15.41802832 51.70807784 14.625 47.5625 C14.40328125 46.39783203 14.1815625 45.23316406 13.953125 44.03320312 C12.73300897 37.66347975 11.44699264 31.32214073 10 25 C9.67 25 9.34 25 9 25 Z " fill="#1E1A1D" transform="translate(336,640)"/>
<path d="M0 0 C5.61 0 11.22 0 17 0 C19.54626615 6.35331961 22.09140662 12.70708854 24.63549805 19.0612793 C25.50139825 21.22351313 26.3676077 23.38562316 27.23413086 25.54760742 C28.47851286 28.65250791 29.72178756 31.75784977 30.96484375 34.86328125 C31.35341049 35.83211746 31.74197723 36.80095367 32.14231873 37.79914856 C32.50261673 38.6998558 32.86291473 39.60056305 33.23413086 40.52856445 C33.55167831 41.32132278 33.86922577 42.11408112 34.19639587 42.93086243 C34.84569174 44.6026837 35.43285174 46.29855521 36 48 C36.33 32.16 36.66 16.32 37 0 C42.28 0 47.56 0 53 0 C53 29.7 53 59.4 53 90 C47.72 90 42.44 90 37 90 C36.53625977 88.86570557 36.07251953 87.73141113 35.59472656 86.56274414 C33.85911759 82.31853033 32.12171264 78.0750536 30.38378906 73.83178711 C29.63460772 72.00190683 28.88590105 70.17183214 28.13769531 68.34155273 C27.0566147 65.69722955 25.97377813 63.05363107 24.890625 60.41015625 C24.56128967 59.60353043 24.23195435 58.7969046 23.89263916 57.96583557 C23.57260925 57.18570602 23.25257935 56.40557648 22.92285156 55.60180664 C22.64749573 54.92896133 22.37213989 54.25611603 22.08843994 53.56288147 C20.44235315 49.68694383 18.71024779 45.84805754 17 42 C16.67 57.84 16.34 73.68 16 90 C10.72 90 5.44 90 0 90 C0 60.3 0 30.6 0 0 Z " fill="#1E1A1D" transform="translate(385,640)"/>
<path d="M0 0 C5.61 0 11.22 0 17 0 C19.52710604 6.1746208 22.0539547 12.34934683 24.58056641 18.52416992 C25.43987086 20.62413368 26.29924526 22.72406883 27.15869141 24.82397461 C28.39504148 27.84481378 29.63113881 30.86575626 30.8671875 33.88671875 C31.25059296 34.82335861 31.63399841 35.75999847 32.02902222 36.72502136 C32.38924469 37.60555679 32.74946716 38.48609222 33.12060547 39.39331055 C33.43593231 40.16386276 33.75125916 40.93441498 34.07614136 41.72831726 C35.06032862 44.14834247 36.02974255 46.57435636 37 49 C37 32.83 37 16.66 37 0 C42.28 0 47.56 0 53 0 C53 29.7 53 59.4 53 90 C48.05 90 43.1 90 38 90 C35.23047293 84.58551744 32.71606373 79.14055175 30.3984375 73.51953125 C30.07589996 72.74365158 29.75336243 71.96777191 29.42105103 71.16838074 C28.40300791 68.71752763 27.38897664 66.26503787 26.375 63.8125 C25.6877566 62.15679451 25.00025873 60.50119462 24.3125 58.84570312 C23.05366691 55.81287906 21.7954975 52.77978614 20.54052734 49.74536133 C20.29056 49.14105789 20.04059265 48.53675446 19.78305054 47.91413879 C18.84237733 45.61469706 17.92268711 43.30671777 17 41 C16.67 57.17 16.34 73.34 16 90 C10.72 90 5.44 90 0 90 C0 60.3 0 30.6 0 0 Z " fill="#1E1A1D" transform="translate(451,640)"/>
<path d="M0 0 C14.19 0 28.38 0 43 0 C43 4.95 43 9.9 43 15 C34.42 15 25.84 15 17 15 C17 22.59 17 30.18 17 38 C24.59 37.67 32.18 37.34 40 37 C40 41.95 40 46.9 40 52 C32.41 52 24.82 52 17 52 C17 59.59 17 67.18 17 75 C25.58 75 34.16 75 43 75 C43 79.95 43 84.9 43 90 C28.81 90 14.62 90 0 90 C0 60.3 0 30.6 0 0 Z " fill="#1E1A1D" transform="translate(519,640)"/>
<path d="M0 0 C33 0 33 0 42 4 C48.41730495 10.41730495 50.41543412 15.8253638 51.02734375 24.859375 C50.97408437 30.97659516 49.69346836 36.66914329 45.3125 41.125 C44.549375 41.74375 43.78625 42.3625 43 43 C43.47050781 43.40089844 43.94101562 43.80179688 44.42578125 44.21484375 C50.11393217 49.40837285 52.49138918 54.04283534 53.27734375 61.703125 C53.55073337 69.53300373 52.13725763 75.7635813 47.8125 82.3125 C34.82107965 94.72652389 17.32308614 90 0 90 C0 60.3 0 30.6 0 0 Z M17 15 C17 22.26 17 29.52 17 37 C27.03532046 37.94324222 27.03532046 37.94324222 31.125 35.125 C34.45209421 31.35429323 34.32824514 28.36662795 34.29296875 23.484375 C33.88537873 20.02801166 32.53723498 18.31336131 30 16 C26.73289481 14.18010841 26.73289481 14.18010841 17 15 Z M17 52 C16.67 59.59 16.34 67.18 16 75 C18.206875 75.0825 20.41375 75.165 22.6875 75.25 C23.92886719 75.29640625 25.17023437 75.3428125 26.44921875 75.390625 C30.66656364 74.92667067 32.23718792 74.20859415 35 71 C36.20497045 65.0531164 36.03775075 59.0755015 33.3125 53.625 C27.92972724 50.9843945 22.93862055 51.70006967 17 52 Z " fill="#1E1A1D" transform="translate(637,640)"/>
<path d="M0 0 C38.3100616 0 38.3100616 0 44.33984375 4.90234375 C44.86707031 5.57394531 45.39429688 6.24554687 45.9375 6.9375 C46.48277344 7.60652344 47.02804687 8.27554688 47.58984375 8.96484375 C52.95431357 16.70691793 52.88722857 26.03752325 51.5390625 35.09765625 C50.22386737 41.21718182 48.41171186 45.62824375 44.3046875 50.37890625 C42.77922485 52.08156745 42.77922485 52.08156745 42 55 C42.86003578 58.03994404 42.86003578 58.03994404 44.23828125 61.42578125 C44.47910934 62.05099167 44.71993744 62.67620209 44.96806335 63.32035828 C45.7408134 65.32125424 46.52623104 67.31688252 47.3125 69.3125 C48.08528723 71.29839187 48.85545261 73.28528061 49.62480164 75.27250671 C50.32798147 77.08480355 51.03748263 78.89464393 51.74731445 80.7043457 C52.91368643 83.77292011 53.96189729 86.88569186 55 90 C48.73 90 42.46 90 36 90 C34.43050956 85.62275231 32.86294559 81.24491382 31.30029297 76.86523438 C30.76789857 75.37491984 30.23437445 73.88500839 29.69970703 72.39550781 C28.93225901 70.25690498 28.16885919 68.11689483 27.40625 65.9765625 C27.04533264 64.97491562 27.04533264 64.97491562 26.67712402 63.95303345 C25 59.22774341 25 59.22774341 25 57 C22.36 57 19.72 57 17 57 C17 67.89 17 78.78 17 90 C11.39 90 5.78 90 0 90 C0 60.3 0 30.6 0 0 Z M17 15 C17 24.24 17 33.48 17 43 C24.65694807 43.45601087 24.65694807 43.45601087 31 41 C34.88780177 35.72369759 35.68685546 30.48141787 35 24 C33.76391302 20.5519679 32.63998001 18.58180001 29.9375 16.125 C25.96783164 14.40392122 25.96783164 14.40392122 17 15 Z " fill="#1E1A1D" transform="translate(767,640)"/>
<path d="M0 0 C5.58271295 3.58136303 8.25728801 7.71346301 10 14 C10.58327083 18.3573762 10.81465238 22.59799413 11 27 C5.39 27 -0.22 27 -6 27 C-6.061875 25.618125 -6.12375 24.23625 -6.1875 22.8125 C-6.59756224 19.25113757 -7.00403176 17.99418953 -9.125 14.9375 C-12.80410875 12.45810062 -14.6446617 12.22226102 -19 13 C-21.92005955 15.04382901 -23.72599945 16.65092682 -24.45385742 20.23461914 C-24.62973049 23.03342219 -24.64034773 25.78975731 -24.59375 28.59375 C-24.59379028 29.61803101 -24.59383057 30.64231201 -24.59387207 31.69763184 C-24.58851944 33.85951892 -24.57094783 36.02140568 -24.54199219 38.18310547 C-24.50014481 41.48856191 -24.50092465 44.79197959 -24.5078125 48.09765625 C-24.49731933 50.20053497 -24.48438055 52.3034032 -24.46875 54.40625 C-24.46844788 55.88611389 -24.46844788 55.88611389 -24.46813965 57.39587402 C-24.35948881 64.19224201 -24.35948881 64.19224201 -21 70 C-18.37584792 71.14189045 -15.84054355 71.20487351 -13 71 C-10.00204165 69.66048669 -8.47220125 68.9444025 -7 66 C-6.77377919 64.29636178 -6.59111527 62.58671299 -6.4375 60.875 C-6.293125 59.26625 -6.14875 57.6575 -6 56 C-0.39 56 5.22 56 11 56 C11.40299304 64.32852284 10.61311137 72.06545521 5.375 78.875 C-0.57545543 85.15110224 -8.50412656 86.70518863 -16.8125 87.25 C-23.99630601 87.11290447 -30.22936965 84.70872452 -35.49609375 79.80859375 C-40.29009155 74.04334444 -42.09652217 66.72329796 -42.16113281 59.35253906 C-42.17074036 58.46101135 -42.1803479 57.56948364 -42.19024658 56.65093994 C-42.19449646 55.69878601 -42.19874634 54.74663208 -42.203125 53.765625 C-42.20882507 52.77302673 -42.21452515 51.78042847 -42.22039795 50.75775146 C-42.2298287 48.65980082 -42.23637427 46.56183548 -42.24023438 44.46386719 C-42.24992366 41.27512367 -42.28095906 38.08702949 -42.3125 34.8984375 C-42.31903248 32.85417047 -42.32428199 30.80989886 -42.328125 28.765625 C-42.3404718 27.82156799 -42.3528186 26.87751099 -42.36553955 25.90484619 C-42.33549098 16.8521591 -40.41982948 9.37569847 -34.06640625 2.73046875 C-24.77348482 -5.05169419 -10.61451929 -5.30725964 0 0 Z " fill="#1E1A1D" transform="translate(197,763)"/>
<path d="M0 0 C5.61 0 11.22 0 17 0 C17 11.88 17 23.76 17 36 C23.27 36 29.54 36 36 36 C36 24.12 36 12.24 36 0 C41.28 0 46.56 0 52 0 C52 29.04 52 58.08 52 88 C46.72 88 41.44 88 36 88 C36 75.46 36 62.92 36 50 C29.73 50 23.46 50 17 50 C17 62.54 17 75.08 17 88 C11.72 88 6.44 88 1 88 C-0.79988399 86.20011601 -0.11993004 83.75000124 -0.12442017 81.35444641 C-0.12082489 80.54452744 -0.11722961 79.73460846 -0.11352539 78.90014648 C-0.11367142 78.05143982 -0.11381744 77.20273315 -0.1139679 76.32830811 C-0.11326848 73.50921109 -0.10547478 70.69017929 -0.09765625 67.87109375 C-0.09579217 65.92196183 -0.09436822 63.97282945 -0.09336853 62.0236969 C-0.08954255 56.88293168 -0.07971159 51.74219453 -0.06866455 46.60144043 C-0.05845215 41.35994852 -0.05387128 36.1184521 -0.04882812 30.87695312 C-0.03808939 20.58462108 -0.02049195 10.29231726 0 0 Z " fill="#1E1A1D" transform="translate(221,761)"/>
<path d="M0 0 C6.93 0 13.86 0 21 0 C23.1652924 9.03259222 25.33011417 18.06529689 27.49413776 27.09819317 C28.49930493 31.29380227 29.50466761 35.48936431 30.51049805 39.68481445 C31.48356877 43.74365283 32.4560986 47.80262048 33.42827415 51.86167336 C33.79681854 53.40002749 34.16554852 54.93833718 34.53447914 56.47659874 C35.38327438 60.0159043 36.2293616 63.5557825 37.06802368 67.09750366 C37.67760354 69.6681794 38.30855171 72.23041564 38.95126343 74.79336548 C39.2357132 75.95057098 39.52016296 77.10777649 39.81323242 78.30004883 C40.06707199 79.30860428 40.32091156 80.31715973 40.58244324 81.35627747 C41 84 41 84 40 88 C34.72 88 29.44 88 24 88 C22 82 22 82 21 72 C14.07 72 7.14 72 0 72 C-0.33 74.97 -0.66 77.94 -1 81 C-1.66 83.31 -2.32 85.62 -3 88 C-8.61 88 -14.22 88 -20 88 C-18.51249038 78.27821622 -16.40433443 68.77506825 -14.12109375 59.21875 C-13.7448634 57.63130619 -13.36897967 56.04378019 -12.99342346 54.45617676 C-12.01261138 50.31417914 -11.02702133 46.17333322 -10.04040527 42.03271484 C-9.03496009 37.80899006 -8.03435849 33.58411823 -7.03320312 29.359375 C-5.57197476 23.1966955 -4.10923152 17.03437962 -2.64233398 10.87304688 C-2.34858383 9.63905151 -2.05483368 8.40505615 -1.75218201 7.13366699 C-1.18067935 4.75272859 -0.59386486 2.37545943 0 0 Z M10 23 C7.11942202 34.56595703 5.07282187 46.26803868 3 58 C7.62 58 12.24 58 17 58 C16.29030575 50.37282622 14.92147041 42.94880122 13.4375 35.4375 C13.20353516 34.23802734 12.96957031 33.03855469 12.72851562 31.80273438 C12.15556853 28.8678421 11.57932273 25.93363922 11 23 C10.67 23 10.34 23 10 23 Z " fill="#1E1A1D" transform="translate(305,761)"/>
<path d="M0 0 C6.27 0 12.54 0 19 0 C19.99902344 2.86429688 20.99804688 5.72859375 22.02734375 8.6796875 C22.99341248 11.44656417 23.95994051 14.21327998 24.92651367 16.97998047 C25.59919544 18.90624477 26.27139788 20.83267652 26.94311523 22.75927734 C27.90743742 25.52485373 28.87346898 28.28982779 29.83984375 31.0546875 C30.14091537 31.9193161 30.441987 32.7839447 30.75218201 33.67477417 C31.032397 34.47545319 31.312612 35.2761322 31.60131836 36.10107422 C31.84780624 36.8072287 32.09429413 37.51338318 32.34825134 38.24093628 C32.98965604 40.0698167 32.98965604 40.0698167 34 42 C35.8352074 36.6621834 37.66823984 31.3236268 39.49926758 25.984375 C40.12236887 24.16841496 40.74606226 22.35265798 41.37036133 20.53710938 C42.26800065 17.92631433 43.16350276 15.31479465 44.05859375 12.703125 C44.3377916 11.89256653 44.61698944 11.08200806 44.90464783 10.24688721 C45.16484207 9.48640076 45.42503632 8.72591431 45.69311523 7.94238281 C45.92183823 7.27619934 46.15056122 6.61001587 46.38621521 5.92364502 C47.00830393 3.9739749 47.50364813 1.98540746 48 0 C54.6 0 61.2 0 68 0 C68.02255024 11.32611985 68.04091463 22.65222491 68.05181217 33.97836208 C68.05704119 39.23696664 68.06413918 44.4955551 68.07543945 49.75415039 C68.08626766 54.82453127 68.09227669 59.89489662 68.09487724 64.96528816 C68.09673161 66.90426948 68.10035245 68.84324991 68.10573006 70.78222466 C68.1129396 73.4882176 68.11399098 76.19414556 68.11352539 78.90014648 C68.11712067 79.71006546 68.12071594 80.51998444 68.12442017 81.35444641 C68.11405216 86.88594784 68.11405216 86.88594784 67 88 C64.48863896 88.09975032 62.01096585 88.13882183 59.5 88.125 C58.79746094 88.12886719 58.09492188 88.13273438 57.37109375 88.13671875 C52.12661378 88.12661378 52.12661378 88.12661378 51 87 C50.90673284 85.43452952 50.88254418 83.86487228 50.88647461 82.29663086 C50.88655014 81.29566879 50.88662567 80.29470673 50.88670349 79.26341248 C50.89186478 78.1748848 50.89702606 77.08635712 50.90234375 75.96484375 C50.9037587 74.85645645 50.90517365 73.74806915 50.90663147 72.60609436 C50.91224967 69.04986931 50.92480525 65.49370617 50.9375 61.9375 C50.94251266 59.53320403 50.94707597 57.12890708 50.95117188 54.72460938 C50.96222501 48.81638496 50.97898083 42.9081969 51 37 C50.67201416 37.93384521 50.34402832 38.86769043 50.00610352 39.82983398 C48.79203151 43.2841428 47.57420644 46.73711833 46.35522461 50.18969727 C45.82750101 51.6860789 45.30080508 53.18282335 44.77514648 54.67993164 C44.02074772 56.82794169 43.26270006 58.97463297 42.50390625 61.12109375 C42.26845596 61.79401962 42.03300568 62.4669455 41.79042053 63.16026306 C40.11387171 67.88612829 40.11387171 67.88612829 39 69 C37.14712498 69.07226502 35.29166122 69.0838122 33.4375 69.0625 C32.42558594 69.05347656 31.41367187 69.04445313 30.37109375 69.03515625 C29.58863281 69.02355469 28.80617188 69.01195312 28 69 C26.54048816 64.95875794 25.08259944 60.91693218 23.625 56.875 C23.2125 55.73289062 22.8 54.59078125 22.375 53.4140625 C21.97539062 52.30546875 21.57578125 51.196875 21.1640625 50.0546875 C20.79748535 49.03874512 20.4309082 48.02280273 20.05322266 46.97607422 C18.99885333 43.99675989 17.99940025 40.99820074 17 38 C16.67 54.5 16.34 71 16 88 C10.72 88 5.44 88 0 88 C0 58.96 0 29.92 0 0 Z " fill="#1E1A1D" transform="translate(358,761)"/>
<path d="M0 0 C37.15789474 0 37.15789474 0 44.875 6.375 C50.81071457 13.70735329 51.40300253 20.56698991 50.65625 29.68359375 C49.66840834 34.67572214 47.2437772 38.16103433 44 42 C44.928125 42.66 45.85625 43.32 46.8125 44 C51.50950356 48.00855387 52.77908927 52.37054865 53.28125 58.34765625 C53.50510321 67.06860407 52.73470269 72.93701315 47.8125 80.25 C35.09293249 92.68691046 16.65729869 88 0 88 C0 58.96 0 29.92 0 0 Z M16 15 C16 21.6 16 28.2 16 35 C18.554696 36.277348 20.04679773 35.96864177 22.875 35.6875 C23.73867188 35.60886719 24.60234375 35.53023437 25.4921875 35.44921875 C28.08877097 34.98409866 29.80883899 34.46551678 32 33 C34.68677812 28.93978898 34.75317529 24.70316127 34 20 C32.50687659 16.67155887 32.50687659 16.67155887 29 15 C24.57764048 14.59310009 20.4601416 14.77474032 16 15 Z M16 50 C16 57.59 16 65.18 16 73 C19.0628125 73.0928125 19.0628125 73.0928125 22.1875 73.1875 C23.91033203 73.23970703 23.91033203 73.23970703 25.66796875 73.29296875 C29.33289234 72.97073045 31.09664715 72.21232393 34 70 C36.9657349 65.55139766 36.64087636 61.21856465 36 56 C34.19881522 52.99802536 33.09667268 51.54833634 30 50 C27.62597499 49.92883618 25.24999323 49.91590915 22.875 49.9375 C19.471875 49.9684375 19.471875 49.9684375 16 50 Z " fill="#1E1A1D" transform="translate(443,761)"/>
<path d="M0 0 C13.86 0 27.72 0 42 0 C42 5.28 42 10.56 42 16 C33.42 16 24.84 16 16 16 C16.33 18.31 16.66 20.62 17 23 C16.85030005 27.36061476 16.40344678 31.65174027 16 36 C23.59 36 31.18 36 39 36 C39 40.95 39 45.9 39 51 C31.74 51 24.48 51 17 51 C17.03953747 57.49198522 17.03953747 57.49198522 17.09008789 63.98388672 C17.09258545 64.79100098 17.09508301 65.59811523 17.09765625 66.4296875 C17.10551147 67.67081299 17.10551147 67.67081299 17.11352539 68.93701172 C17 71 17 71 16 73 C25.24 73 34.48 73 44 73 C43.67 77.95 43.34 82.9 43 88 C28.81 88 14.62 88 0 88 C0 58.96 0 29.92 0 0 Z " fill="#1E1A1D" transform="translate(511,761)"/>
<path d="M0 0 C35.76923077 0 35.76923077 0 45.9375 5.625 C52.95011412 13.70013141 52.93360991 23.77406585 52.23193359 33.94726562 C51.54146473 40.05827843 49.27418352 44.79389058 45.125 49.25 C44.073125 50.61125 44.073125 50.61125 43 52 C43.6728054 54.88035097 43.6728054 54.88035097 45 58 C45.40814941 59.06250977 45.81629883 60.12501953 46.23681641 61.21972656 C46.68718262 62.34862305 47.13754883 63.47751953 47.6015625 64.640625 C48.09645315 65.88798157 48.59124192 67.13537856 49.0859375 68.3828125 C49.85934286 70.32768498 50.63383132 72.27211126 51.41015625 74.21582031 C52.16443471 76.1062544 52.91452024 77.99830904 53.6640625 79.890625 C54.33622803 81.57720215 54.33622803 81.57720215 55.02197266 83.29785156 C56 86 56 86 56 88 C53.20826945 88.02690104 50.41679652 88.04679053 47.625 88.0625 C46.8309375 88.07087891 46.036875 88.07925781 45.21875 88.08789062 C39.2265625 88.11328125 39.2265625 88.11328125 37 87 C36.04560363 84.78733017 35.20059021 82.60761684 34.3984375 80.33984375 C34.1571109 79.67537735 33.9157843 79.01091095 33.66714478 78.3263092 C32.89632021 76.19908391 32.13557627 74.06840835 31.375 71.9375 C30.85482555 70.49650678 30.33400042 69.05574826 29.8125 67.61523438 C28.53409467 64.07950423 27.26471984 60.54064727 26 57 C23.03 56.67 20.06 56.34 17 56 C17 66.23 17 76.46 17 87 C11.92281793 89.53859104 5.67646212 88 0 88 C0 58.96 0 29.92 0 0 Z M17 15 C17 23.58 17 32.16 17 41 C27.8725506 41.98860445 27.8725506 41.98860445 32.1875 39.1875 C35.22032418 35.52719495 35.21231834 32.23335613 35.3125 27.625 C35.34988281 26.50351562 35.38726563 25.38203125 35.42578125 24.2265625 C34.91124451 20.32741251 33.76779131 18.74285625 31 16 C26.78779356 14.4202491 26.78779356 14.4202491 17 15 Z " fill="#1E1A1D" transform="translate(569,761)"/>
<path d="M0 0 C5.61 0 11.22 0 17 0 C17 11.88 17 23.76 17 36 C21.95 35.505 21.95 35.505 27 35 C29.64 35 32.28 35 35 35 C35.33 23.45 35.66 11.9 36 0 C41.61 0 47.22 0 53 0 C53.02255024 11.32611985 53.04091463 22.65222491 53.05181217 33.97836208 C53.05704119 39.23696664 53.06413918 44.4955551 53.07543945 49.75415039 C53.08626766 54.82453127 53.09227669 59.89489662 53.09487724 64.96528816 C53.09673161 66.90426948 53.10035245 68.84324991 53.10573006 70.78222466 C53.1129396 73.4882176 53.11399098 76.19414556 53.11352539 78.90014648 C53.11712067 79.71006546 53.12071594 80.51998444 53.12442017 81.35444641 C53.11405216 86.88594784 53.11405216 86.88594784 52 88 C46.72 88 41.44 88 36 88 C36 75.46 36 62.92 36 50 C29.73 50 23.46 50 17 50 C17 62.54 17 75.08 17 88 C11.39 88 5.78 88 0 88 C0 58.96 0 29.92 0 0 Z " fill="#5D737E" transform="translate(668,761)"/>
<path d="M0 0 C5.61 0 11.22 0 17 0 C16.98952637 1.87179932 16.97905273 3.74359863 16.96826172 5.67211914 C16.93593791 11.87468396 16.91299705 18.07722875 16.89637566 24.27985477 C16.88596351 28.0384246 16.87185158 31.79690281 16.84912109 35.55541992 C16.82730062 39.18642 16.81541207 42.81733226 16.81024551 46.44839287 C16.80656621 47.82979145 16.79938162 49.21118553 16.78853989 50.59254646 C16.5702268 60.51162769 16.5702268 60.51162769 19 70 C22.01972087 72.76088765 23.52001838 73.00827555 27.625 72.9375 C31.01301113 72.29452466 31.01301113 72.29452466 32.875 70.125 C34.94876032 66.20789717 35.14612028 63.06511652 35.20532227 58.69262695 C35.22526749 57.39150467 35.24521271 56.09038239 35.26576233 54.74983215 C35.28274546 53.3293164 35.29962431 51.9087994 35.31640625 50.48828125 C35.33698137 49.03524694 35.35797799 47.58221854 35.37937927 46.12919617 C35.43454234 42.3070047 35.48397698 38.48475974 35.53222656 34.66247559 C35.58248372 30.76126348 35.63814778 26.86012895 35.69335938 22.95898438 C35.80087044 15.30605348 35.90183127 7.65305748 36 0 C41.61 0 47.22 0 53 0 C53.04537685 8.04147516 53.0819881 16.08284899 53.10362434 24.12441826 C53.11401421 27.8593615 53.12808453 31.59421179 53.15087891 35.32910156 C53.17277999 38.94066391 53.18460459 42.55213745 53.18975449 46.16376114 C53.19341952 47.53430705 53.20057542 48.9048487 53.21146011 50.27535629 C53.37853849 72.2059203 53.37853849 72.2059203 47 81 C40.68465745 87.31534255 34.26073172 89.00963678 25.5625 89.3125 C18.68487971 89.16008736 13.42369666 87.6005544 7.6875 83.8125 C1.6373448 77.48094224 -0.12920141 70.80237384 -0.11352539 62.21191406 C-0.11367142 61.53833359 -0.11381744 60.86475311 -0.1139679 60.17076111 C-0.11327324 57.95234924 -0.10550181 55.73402214 -0.09765625 53.515625 C-0.09579048 51.97434536 -0.09436733 50.43306512 -0.09336853 48.89178467 C-0.08955585 44.84102737 -0.07973624 40.79030609 -0.06866455 36.73956299 C-0.05842356 32.60372403 -0.05386515 28.46787924 -0.04882812 24.33203125 C-0.03811284 16.22133582 -0.02052616 8.11067654 0 0 Z " fill="#5D737E" transform="translate(737,761)"/>
<path d="M0 0 C35.7027027 0 35.7027027 0 43.3125 5.3125 C48.55262218 10.55262218 49.96363346 16.06593507 50.25 23.25 C50.15296119 30.5279106 48.01021924 36.64424839 43 42 C43.7425 42.474375 44.485 42.94875 45.25 43.4375 C49.97107206 47.83668078 51.69939664 52.19740506 52.38671875 58.60546875 C52.63544011 67.15633773 52.10950192 74.06205737 46.52734375 80.76953125 C34.59839463 92.36007047 14.1404501 88 0 88 C0 58.96 0 29.92 0 0 Z M16 15 C16 21.6 16 28.2 16 35 C24.03037661 35.74348822 24.03037661 35.74348822 31.1875 32.9375 C33.34598366 29.43926786 33.92671237 27.10410737 34 23 C33.25368285 20.0147314 32.51884266 18.49967064 30.30859375 16.37109375 C27.29562526 14.58166577 25.22715602 14.69911448 21.75 14.8125 C19.8525 14.874375 17.955 14.93625 16 15 Z M16 50 C16 57.59 16 65.18 16 73 C18.8153125 73.0928125 18.8153125 73.0928125 21.6875 73.1875 C23.27111328 73.23970703 23.27111328 73.23970703 24.88671875 73.29296875 C28.41836599 72.96063055 30.18255429 72.11678496 33 70 C35.9657349 65.55139766 35.64087636 61.21856465 35 56 C33.19881522 52.99802536 32.09667268 51.54833634 29 50 C24.66396021 49.8606671 20.33919329 49.95745889 16 50 Z " fill="#5D737E" transform="translate(806,761)"/>
</svg>
